<?xml version="1.0" encoding="iso-8859-1"?>
<!-- Generator: Adobe Illustrator 19.0.0, SVG Export Plug-In . SVG Version: 6.00 Build 0)  -->
<svg version="1.1" id="Layer_1" xmlns="http://www.w3.org/2000/svg" xmlns:xlink="http://www.w3.org/1999/xlink" x="0px" y="0px"
	 viewBox="0 0 512.007 512.007" style="enable-background:new 0 0 512.007 512.007;" xml:space="preserve">
<g>
	<g>
		<g>
			<path d="M325.179,296.893c-6.7,2.947-33.765,20.21-31.696,18.969c-12.097,7.254-22.477,11.962-33.022,14.484
				c-13.274,3.181-26.135,3.177-47.137,1.06c-21.319-2.149-23.846-2.311-31.622-0.899c-18.451,3.352-28.11,18.901-23.595,37.74
				c10.037,41.85,73.681,77.063,126.828,64.353c53.162-12.738,93.959-72.98,83.922-114.833
				C363.5,295.436,344.467,288.41,325.179,296.893z M275.001,391.106c-22.126,5.292-48.844-4.462-63.92-17.047
				c24.306,2.359,40.688,2.244,59.313-2.219c15.414-3.686,29.518-10.084,45.031-19.386c0.441-0.264,4.251-2.684,8.892-5.599
				C316.61,364.923,297.175,385.792,275.001,391.106z"/>
			<path d="M302.735,247.98c-3.624,5.153-5.027,10.834-3.401,16.059c3.605,11.541,20.544,16.512,37.845,11.115
				s28.416-19.115,24.811-30.656s-20.544-16.512-37.845-11.115c-3.821,1.192-7.338,2.792-10.463,4.684l31.862-34.042
				c8.051-8.602,7.605-22.102-0.998-30.153s-22.102-7.605-30.153,0.998l-37.099,39.637c-8.051,8.602-7.605,22.102,0.998,30.153
				C285.087,251.02,294.928,252.055,302.735,247.98z"/>
			<path d="M187.846,296.488c17.042-5.316,28.071-18.704,24.952-30.134c8.627,1.271,17.508-2.84,21.886-10.959
				c5.593-10.37,1.719-23.311-8.651-28.903l-47.787-25.771c-10.37-5.592-23.311-1.719-28.903,8.651
				c-5.592,10.37-1.719,23.311,8.651,28.903l26.786,14.446c-3.246,0.293-6.601,0.946-9.97,1.997
				c-17.301,5.397-28.395,19.136-24.811,30.656C153.606,296.914,170.545,301.885,187.846,296.488z"/>
			<path d="M509.99,238.16c-4.096-17.323-13.867-31.829-26.773-39.787c-9.472-5.845-20.203-7.701-30.379-5.333
				c-1.053,0.254-2.805,0.8-4.898,1.496c-7.239-16.699-16-31.742-26.125-45.2H448c11.782,0,21.333-9.551,21.333-21.333
				c0-11.782-9.551-21.333-21.333-21.333h-21.333v-64c0-11.782-9.551-21.333-21.333-21.333C393.551,21.337,384,30.888,384,42.67
				v67.435l-0.869,0.153c-7.76-5.955-15.949-11.368-24.543-16.24c-23.598-13.378-48.711-21.833-73.966-26.381
				c-16.118-2.903-29.614-3.804-39.191-3.621c-8.229,0.156-20.831,1.465-36.74,4.928c-26.295,5.724-52.602,15.642-77.281,30.845
				c-27.57,16.983-50.963,39.242-69.2,67.103l-23.252,4.103c-11.603,2.048-19.349,13.113-17.301,24.716
				c1.594,9.034,8.656,15.728,17.18,17.284c-3.758,9.852-7.024,20.206-9.778,31.066C11.433,250.973,0,271.517,0,298.659
				c0,26.696,11.049,46.997,28.165,54.248c6.367,23.529,17.143,45.739,32.214,65.406c37.228,48.641,94.592,72.357,184.954,72.357
				c86.335,0,144.77-29.033,184.959-81.515c23.169-30.25,36.21-66.5,38.629-104.316c1.183,0.035,2.22,0.052,3.117,0.052
				c4.245,0,5.739-0.341,7.275-0.704C503.889,298.299,517.372,269.307,509.99,238.16z M153.789,136.116
				c20.267-12.485,42.117-20.723,63.978-25.482c7.629-1.661,14.679-2.763,20.942-3.414c3.592-0.373,6.001-0.514,7.02-0.533
				c7.443-0.145,18.179,0.572,31.331,2.94c13.956,2.513,27.824,6.473,41.214,12.076L127.99,155.283
				C135.983,148.161,144.593,141.78,153.789,136.116z M396.418,383.213c-32.141,41.972-78.069,64.791-151.085,64.791
				c-77.967,0-122.636-18.467-151.08-55.633c-26.247-34.251-35.813-78.804-27.151-123.1c4.719-24.166,12.092-45.329,21.816-63.766
				l281.818-49.733c25.683,24.695,43.937,58.813,52.827,104.342C432.227,304.396,422.661,348.951,396.418,383.213z"/>
		</g>
	</g>
</g>
<g>
</g>
<g>
</g>
<g>
</g>
<g>
</g>
<g>
</g>
<g>
</g>
<g>
</g>
<g>
</g>
<g>
</g>
<g>
</g>
<g>
</g>
<g>
</g>
<g>
</g>
<g>
</g>
<g>
</g>
</svg>
